<svg width="138" height="51" viewBox="0 0 138 51" fill="none" xmlns="http://www.w3.org/2000/svg">
<g clip-path="url(#clip0_222_7)">
<path d="M71.2467 16.8924L77.8122 16.47C77.962 17.5382 78.2366 18.3332 78.686 18.9045C79.4099 19.7988 80.4085 20.246 81.7315 20.246C82.7051 20.246 83.479 20.0224 84.0033 19.5504C84.5025 19.1778 84.8021 18.5816 84.8021 17.9606C84.8021 17.3644 84.5275 16.793 84.0532 16.4204C83.5539 15.9732 82.3806 15.5261 80.5333 15.1286C77.5127 14.4579 75.3408 13.5636 74.0677 12.4209C72.7945 11.3527 72.0706 9.78763 72.1205 8.12324C72.1205 6.98052 72.47 5.8378 73.119 4.89382C73.8679 3.82563 74.8915 2.98101 76.1147 2.50902C77.4378 1.93766 79.2851 1.63956 81.6067 1.63956C84.4526 1.63956 86.6245 2.16123 88.1223 3.22943C89.6201 4.27278 90.5188 5.96201 90.7934 8.27229L84.3028 8.64491C84.1281 7.65125 83.7786 6.93084 83.2044 6.45885C82.6302 5.98685 81.8813 5.76328 80.9077 5.76328C80.1089 5.76328 79.5098 5.93717 79.1103 6.26011C78.7359 6.55821 78.4863 7.00536 78.5112 7.5022C78.5112 7.87482 78.7109 8.22261 79.0105 8.44618C79.335 8.74428 80.1089 9.01754 81.3321 9.26596C84.3527 9.91184 86.4996 10.5577 87.8227 11.2285C89.1458 11.8992 90.0944 12.719 90.6686 13.6878C91.2677 14.6814 91.5673 15.8242 91.5423 16.9917C91.5423 18.3829 91.1429 19.774 90.3441 20.9416C89.5203 22.1588 88.3719 23.1028 87.0239 23.6741C85.6009 24.2952 83.8036 24.6181 81.6567 24.6181C77.8622 24.6181 75.241 23.8977 73.7681 22.4321C72.2952 20.9664 71.4215 19.1281 71.2467 16.8924ZM1.57272 24.2455V2.03702H13.081C15.203 2.03702 16.8506 2.21092 17.974 2.58354C19.0724 2.93132 20.0459 3.65173 20.695 4.62056C21.419 5.68875 21.7685 6.93084 21.7435 8.22261C21.8184 10.4087 20.695 12.4954 18.7728 13.5884C18.0239 14.0107 17.2001 14.3088 16.3513 14.4579C16.9754 14.6318 17.5995 14.9299 18.1487 15.2776C18.5731 15.6254 18.9226 16.0229 19.2471 16.4452C19.6216 16.8675 19.9461 17.3395 20.2207 17.8363L23.5658 24.2703H15.7272L12.0326 17.4389C11.5582 16.5694 11.1588 15.9981 10.7844 15.7248C10.2851 15.377 9.68596 15.2031 9.08683 15.2031H8.4877V24.2207H1.57272V24.2455ZM8.4877 11.0297H11.4085C12.0326 10.98 12.6317 10.8807 13.2308 10.7316C13.6802 10.6571 14.0796 10.4087 14.3542 10.0361C15.0282 9.14175 14.9284 7.87482 14.1046 7.10473C13.6552 6.7321 12.7815 6.53337 11.5333 6.53337H8.4877V11.0297ZM0 43.2742L6.56548 42.8519C6.71527 43.9201 6.98987 44.7151 7.43922 45.2864C8.13821 46.1807 9.16172 46.6527 10.4848 46.6527C11.4584 46.6527 12.2323 46.4291 12.7565 45.9571C13.2558 45.5597 13.5554 44.9883 13.5554 44.3673C13.5554 43.7711 13.2808 43.1997 12.8064 42.8271C12.3072 42.3799 11.1339 41.9328 9.26158 41.5353C6.24095 40.8646 4.0691 39.9703 2.79595 38.8276C1.52279 37.7594 0.798842 36.1944 0.84877 34.53C0.84877 33.3872 1.19826 32.2445 1.84732 31.3005C2.59624 30.2323 3.61975 29.3877 4.84298 28.9157C6.16606 28.3444 8.01339 28.0463 10.335 28.0463C13.1809 28.0463 15.3528 28.568 16.8506 29.6361C18.3484 30.7043 19.2221 32.3687 19.4967 34.679L13.0062 35.0516C12.8314 34.058 12.4819 33.3376 11.9077 32.8656C11.3585 32.3936 10.5847 32.17 9.61107 32.1948C8.81223 32.1948 8.2131 32.3687 7.81368 32.7165C7.41425 33.0146 7.18958 33.4618 7.21454 33.9586C7.21454 34.3312 7.41425 34.679 7.71382 34.9026C8.03835 35.2007 8.81223 35.4739 10.0355 35.7224C13.0561 36.3682 15.203 37.0141 16.526 37.6849C17.8491 38.3556 18.7978 39.1754 19.3719 40.1442C19.9711 41.1379 20.2706 42.2806 20.2706 43.4233C20.2706 44.8144 19.8462 46.1807 19.0724 47.3483C18.2486 48.5655 17.1002 49.5095 15.7522 50.0809C14.3292 50.7019 12.5318 51.0248 10.3849 51.0248C6.59045 51.0248 3.96925 50.3044 2.49638 48.8388C1.02352 47.3483 0.199711 45.51 0 43.2742Z" fill="black"/>
<path d="M33.2019 41.5353L39.2431 43.3487C38.9186 44.8641 38.2446 46.3049 37.3209 47.5718C36.4721 48.6897 35.3488 49.5592 34.0756 50.1305C32.7775 50.7019 31.1299 51 29.1328 51C26.7113 51 24.7142 50.6522 23.1914 49.9566C21.6436 49.2611 20.3205 48.019 19.1972 46.2552C18.0738 44.4915 17.5246 42.2309 17.5246 39.4734C17.5246 35.7969 18.4982 32.9649 20.4703 31.0024C22.4425 29.0399 25.2135 28.0463 28.8082 28.0463C31.6292 28.0463 33.826 28.6176 35.4486 29.7355C37.0463 30.8782 38.2446 32.6171 39.0434 34.9523L32.9522 36.2937C32.8025 35.772 32.5778 35.2504 32.2782 34.8032C31.9038 34.2815 31.4294 33.8841 30.8553 33.586C30.2811 33.2879 29.6321 33.1637 28.983 33.1637C27.4103 33.1637 26.212 33.7847 25.3882 35.0516C24.7641 35.9708 24.4396 37.4364 24.4396 39.4238C24.4396 41.8831 24.814 43.5723 25.5629 44.4915C26.3119 45.4106 27.3603 45.8578 28.7334 45.8578C30.0564 45.8578 31.055 45.4851 31.729 44.7647C32.403 43.9946 32.9023 42.9264 33.2019 41.5353ZM47.3064 28.4189H54.1965V36.1943H61.7355V28.4189H68.6755V50.6274H61.7355V41.6347H54.1965V50.6274H47.3064V28.4189Z" fill="black"/>
<path d="M67.7268 39.5231C67.7268 35.8962 68.7503 33.0643 70.7724 31.0521C72.7945 29.0399 75.6403 28.0214 79.2601 28.0214C82.9797 28.0214 85.8256 29.0151 87.8476 31.0024C89.8697 32.9898 90.8683 35.772 90.8683 39.3492C90.8683 41.9576 90.4189 44.0692 89.5452 45.7336C88.6964 47.3731 87.3733 48.7146 85.7507 49.6089C84.0781 50.528 82.0061 51 79.5347 51C77.0134 51 74.9414 50.6025 73.2937 49.8076C71.5962 48.963 70.1982 47.6464 69.2746 46.0317C68.251 44.2927 67.7268 42.1315 67.7268 39.5231ZM74.6168 39.548C74.6168 41.7837 75.0412 43.3984 75.865 44.3921C76.6888 45.3609 77.8372 45.8578 79.2851 45.8578C80.7579 45.8578 81.9063 45.3858 82.7301 44.4169C83.5539 43.4481 83.9533 41.734 83.9533 39.2499C83.9533 37.1632 83.5289 35.623 82.6801 34.679C81.8314 33.7102 80.683 33.2382 79.2351 33.2382C77.962 33.1885 76.7387 33.735 75.89 34.7038C75.0412 35.6727 74.6168 37.2874 74.6168 39.548ZM97.933 39.5231C97.933 35.8962 98.9566 33.0643 100.979 31.0521C103.001 29.0399 105.847 28.0214 109.466 28.0214C113.186 28.0214 116.057 29.0151 118.054 31.0024C120.051 32.9898 121.074 35.772 121.074 39.3492C121.074 41.9576 120.625 44.0692 119.751 45.7336C118.903 47.3731 117.58 48.7146 115.957 49.6089C114.284 50.528 112.212 51 109.741 51C107.22 51 105.148 50.6025 103.5 49.8076C101.802 48.963 100.404 47.6464 99.4808 46.0317C98.4573 44.2927 97.933 42.1315 97.933 39.5231ZM104.823 39.548C104.823 41.7837 105.247 43.3984 106.071 44.3921C106.895 45.3609 108.043 45.8578 109.491 45.8578C110.964 45.8578 112.112 45.3858 112.936 44.4169C113.76 43.4481 114.16 41.734 114.16 39.2499C114.16 37.1632 113.735 35.623 112.886 34.679C112.038 33.7102 110.889 33.2382 109.441 33.2382C108.168 33.1885 106.92 33.735 106.096 34.7038C105.247 35.6727 104.823 37.2874 104.823 39.548Z" fill="black"/>
<path d="M120.351 28.4189H127.241V45.1622H138V50.6274H120.326V28.4189H120.351Z" fill="black"/>
<path d="M112.756 27.1372C119.693 21.9354 121.832 13.1174 117.534 7.44176C113.236 1.76609 104.128 1.38199 97.1915 6.58384C90.2547 11.7857 88.1156 20.6037 92.4138 26.2793C96.7119 31.955 105.82 32.3391 112.756 27.1372Z" fill="white"/>
<mask id="mask0_222_7" style="mask-type:luminance" maskUnits="userSpaceOnUse" x="90" y="2" width="30" height="29">
<path d="M112.756 27.1372C119.693 21.9354 121.832 13.1174 117.534 7.44173C113.236 1.76606 104.128 1.38196 97.1915 6.58381C90.2547 11.7857 88.1156 20.6036 92.4138 26.2793C96.7119 31.955 105.82 32.3391 112.756 27.1372Z" fill="white"/>
</mask>
<g mask="url(#mask0_222_7)">
<path d="M74.7229 14.0457L110.569 -12.8353L135.374 19.9193L99.5274 46.8002L74.7229 14.0457Z" fill="white"/>
<mask id="mask1_222_7" style="mask-type:luminance" maskUnits="userSpaceOnUse" x="74" y="-13" width="62" height="60">
<path d="M74.7229 14.0457L110.569 -12.8353L135.374 19.9193L99.5274 46.8002L74.7229 14.0457Z" fill="white"/>
</mask>
<g mask="url(#mask1_222_7)">
<path d="M112.756 27.1372C119.693 21.9354 121.832 13.1174 117.534 7.44173C113.236 1.76606 104.128 1.38196 97.1915 6.58381C90.2547 11.7857 88.1156 20.6036 92.4138 26.2793C96.7119 31.955 105.82 32.3391 112.756 27.1372Z" fill="white"/>
<mask id="mask2_222_7" style="mask-type:luminance" maskUnits="userSpaceOnUse" x="90" y="2" width="30" height="29">
<path d="M112.756 27.1372C119.693 21.9354 121.832 13.1174 117.534 7.44173C113.236 1.76606 104.128 1.38196 97.1915 6.58381C90.2547 11.7857 88.1156 20.6036 92.4138 26.2793C96.7119 31.955 105.82 32.3391 112.756 27.1372Z" fill="white"/>
</mask>
<g mask="url(#mask2_222_7)">
<path d="M84.7048 16.2328L109.806 -2.5894L125.385 17.9841L100.284 36.8063L84.7048 16.2328Z" fill="white"/>
<mask id="mask3_222_7" style="mask-type:luminance" maskUnits="userSpaceOnUse" x="84" y="-3" width="42" height="40">
<path d="M84.7048 16.2328L109.806 -2.58943L125.385 17.9841L100.284 36.8063L84.7048 16.2328Z" fill="white"/>
</mask>
<g mask="url(#mask3_222_7)">
<path d="M112.756 27.1372C119.693 21.9354 121.832 13.1174 117.534 7.44173C113.236 1.76606 104.128 1.38196 97.1914 6.58381C90.2546 11.7857 88.1155 20.6036 92.4136 26.2793C96.7117 31.955 105.819 32.3391 112.756 27.1372Z" fill="white" stroke="black" stroke-width="4" stroke-miterlimit="10"/>
</g>
<mask id="mask4_222_7" style="mask-type:luminance" maskUnits="userSpaceOnUse" x="88" y="-2" width="34" height="38">
<path d="M88.2817 28.5737L96.9285 -1.47578L121.83 5.63949L113.183 35.689L88.2817 28.5737Z" fill="white"/>
</mask>
<g mask="url(#mask4_222_7)">
<path d="M84.7048 16.2195L109.793 -2.58939L125.385 17.9974L100.297 36.8063L84.7048 16.2195Z" stroke="black" stroke-width="4" stroke-miterlimit="10"/>
</g>
<path d="M112.756 27.1372C119.693 21.9354 121.832 13.1174 117.534 7.44176C113.236 1.76609 104.128 1.38199 97.1915 6.58384C90.2547 11.7857 88.1156 20.6037 92.4138 26.2793C96.7119 31.955 105.82 32.3391 112.756 27.1372Z" stroke="black" stroke-width="4" stroke-miterlimit="10"/>
<path d="M84.7048 16.2328L109.806 -2.5894L125.385 17.9841L100.284 36.8063L84.7048 16.2328Z" fill="white"/>
<mask id="mask5_222_7" style="mask-type:luminance" maskUnits="userSpaceOnUse" x="84" y="-3" width="42" height="40">
<path d="M84.7048 16.2328L109.806 -2.58943L125.385 17.9841L100.284 36.8063L84.7048 16.2328Z" fill="white"/>
</mask>
<g mask="url(#mask5_222_7)">
<path d="M112.756 27.1372C119.693 21.9354 121.832 13.1174 117.534 7.44173C113.236 1.76606 104.128 1.38196 97.1914 6.58381C90.2546 11.7857 88.1155 20.6036 92.4136 26.2793C96.7117 31.955 105.819 32.3391 112.756 27.1372Z" fill="white" stroke="black" stroke-width="4" stroke-miterlimit="10"/>
</g>
<mask id="mask6_222_7" style="mask-type:luminance" maskUnits="userSpaceOnUse" x="88" y="-2" width="34" height="38">
<path d="M88.2817 28.5737L96.9285 -1.47578L121.83 5.63949L113.183 35.689L88.2817 28.5737Z" fill="white"/>
</mask>
<g mask="url(#mask6_222_7)">
<path d="M84.7048 16.2195L109.793 -2.58939L125.385 17.9974L100.297 36.8063L84.7048 16.2195Z" stroke="black" stroke-width="4" stroke-miterlimit="10"/>
</g>
<path d="M74.7229 14.0457L110.569 -12.8353L135.374 19.9193L99.5274 46.8002L74.7229 14.0457Z" stroke="black" stroke-width="4" stroke-miterlimit="10"/>
</g>
<path d="M112.756 27.1372C119.693 21.9354 121.832 13.1174 117.534 7.44173C113.236 1.76606 104.128 1.38196 97.1915 6.58381C90.2547 11.7857 88.1156 20.6036 92.4138 26.2793C96.7119 31.955 105.82 32.3391 112.756 27.1372Z" stroke="black" stroke-width="4" stroke-miterlimit="10"/>
<path d="M97.958 15.2279L100.454 13.489L103.525 17.8363C104.049 18.5319 104.449 19.2771 104.748 20.0969C104.923 20.718 104.873 21.3887 104.623 21.9849C104.299 22.7301 103.775 23.3512 103.076 23.7983C102.252 24.3697 101.553 24.6926 100.954 24.792C100.38 24.8914 99.7804 24.792 99.2312 24.5436C98.632 24.2455 98.1078 23.8232 97.7084 23.2767L99.8553 21.2893C100.03 21.5626 100.255 21.811 100.504 22.0097C100.679 22.1339 100.879 22.2085 101.103 22.2085C101.278 22.2085 101.453 22.1339 101.578 22.0346C101.827 21.8855 102.002 21.5874 101.977 21.2893C101.902 20.867 101.728 20.4447 101.453 20.1218L97.958 15.2279ZM105.447 17.9854L107.719 16.1968C107.969 16.4949 108.293 16.7184 108.643 16.8427C109.142 16.9917 109.666 16.8923 110.09 16.5694C110.39 16.3707 110.64 16.0974 110.739 15.7496C110.889 15.3025 110.64 14.8056 110.19 14.6566C110.115 14.6317 110.041 14.6069 109.966 14.6069C109.666 14.5821 109.142 14.7063 108.368 15.0292C107.095 15.5509 106.096 15.7496 105.347 15.6751C104.623 15.6006 103.949 15.2279 103.55 14.6069C103.25 14.1846 103.101 13.6878 103.076 13.1909C103.076 12.6196 103.225 12.0482 103.55 11.5762C104.024 10.9055 104.598 10.3341 105.297 9.88698C106.346 9.16657 107.27 8.81879 108.068 8.81879C108.867 8.81879 109.616 9.19141 110.315 9.9615L108.068 11.7253C107.619 11.1539 106.77 11.0297 106.196 11.4768L106.121 11.5514C105.872 11.7004 105.697 11.924 105.597 12.1973C105.522 12.396 105.572 12.6196 105.697 12.7935C105.797 12.9177 105.946 13.017 106.121 13.017C106.321 13.0419 106.67 12.9425 107.17 12.7189C108.418 12.1973 109.366 11.8992 110.016 11.7998C110.565 11.7004 111.139 11.7501 111.663 11.9737C112.137 12.1724 112.537 12.5202 112.811 12.9425C113.161 13.4393 113.361 14.0355 113.386 14.6566C113.411 15.3025 113.236 15.9235 112.886 16.47C112.437 17.1408 111.863 17.7121 111.189 18.1593C109.816 19.1032 108.692 19.5007 107.794 19.3517C106.82 19.2026 106.021 18.7058 105.447 17.9854Z" fill="black"/>
</g>
</g>
</g>
<defs>
<clipPath id="clip0_222_7">
<rect width="138" height="51" fill="white"/>
</clipPath>
</defs>
</svg>
